<svg xmlns="http://www.w3.org/2000/svg" xmlns:xlink="http://www.w3.org/1999/xlink" xml:space="preserve" width="150" height="60" enable-background="new 0 0 256 256" overflow="visible" style="overflow:visible" viewBox="0 0 640 256"><defs><radialGradient xlink:href="#a" id="v" cx="102.143" cy="545.934" r="135" fx="102.143" fy="545.934" gradientUnits="userSpaceOnUse"/><radialGradient xlink:href="#b" id="x" cx="102.143" cy="545.934" r="135" fx="102.143" fy="545.934" gradientUnits="userSpaceOnUse"/><radialGradient xlink:href="#a" id="y" cx="102.143" cy="545.934" r="135" fx="102.143" fy="545.934" gradientUnits="userSpaceOnUse"/><radialGradient xlink:href="#b" id="A" cx="102.143" cy="545.934" r="135" fx="102.143" fy="545.934" gradientUnits="userSpaceOnUse"/><radialGradient xlink:href="#a" id="B" cx="102.143" cy="545.934" r="135" fx="102.143" fy="545.934" gradientUnits="userSpaceOnUse"/><radialGradient xlink:href="#b" id="D" cx="102.143" cy="545.934" r="135" fx="102.143" fy="545.934" gradientUnits="userSpaceOnUse"/><radialGradient xlink:href="#a" id="E" cx="102.143" cy="545.934" r="135" fx="102.143" fy="545.934" gradientUnits="userSpaceOnUse"/><radialGradient xlink:href="#b" id="G" cx="102.143" cy="545.934" r="135" fx="102.143" fy="545.934" gradientUnits="userSpaceOnUse"/><radialGradient xlink:href="#a" id="d" cx="102.143" cy="545.934" r="135" fx="102.143" fy="545.934" gradientUnits="userSpaceOnUse"/><radialGradient xlink:href="#b" id="f" cx="102.143" cy="545.934" r="135" fx="102.143" fy="545.934" gradientUnits="userSpaceOnUse"/><radialGradient xlink:href="#a" id="h" cx="102.143" cy="545.934" r="135" fx="102.143" fy="545.934" gradientUnits="userSpaceOnUse"/><radialGradient xlink:href="#b" id="m" cx="102.143" cy="545.934" r="135" fx="102.143" fy="545.934" gradientUnits="userSpaceOnUse"/><radialGradient xlink:href="#a" id="o" cx="102.143" cy="545.934" r="135" fx="102.143" fy="545.934" gradientUnits="userSpaceOnUse"/><radialGradient xlink:href="#b" id="q" cx="102.143" cy="545.934" r="135" fx="102.143" fy="545.934" gradientUnits="userSpaceOnUse"/><radialGradient xlink:href="#a" id="s" cx="102.143" cy="545.934" r="135" fx="102.143" fy="545.934" gradientUnits="userSpaceOnUse"/><radialGradient xlink:href="#b" id="u" cx="102.143" cy="545.934" r="135" fx="102.143" fy="545.934" gradientUnits="userSpaceOnUse"/><linearGradient id="a"><stop offset="0" style="stop-color:#999;stop-opacity:1"/><stop offset="1" style="stop-color:#999;stop-opacity:0"/></linearGradient><linearGradient id="c"><stop offset="0" style="stop-color:#772b00;stop-opacity:1"/><stop offset=".5" style="stop-color:#da441b;stop-opacity:1"/><stop offset=".75" style="stop-color:#d2400f;stop-opacity:1"/><stop offset=".938" style="stop-color:#d44316;stop-opacity:.614583"/><stop offset="1" style="stop-color:#c33900;stop-opacity:.21875"/></linearGradient><linearGradient id="b"><stop offset="0" style="stop-color:#fff;stop-opacity:1"/><stop offset="1" style="stop-color:#fff;stop-opacity:0"/></linearGradient><linearGradient xlink:href="#c" id="w" x1="154.286" x2="605.714" y1="535.219" y2="535.219" gradientUnits="userSpaceOnUse"/><linearGradient xlink:href="#c" id="z" x1="154.286" x2="605.714" y1="535.219" y2="535.219" gradientUnits="userSpaceOnUse"/><linearGradient xlink:href="#c" id="C" x1="154.286" x2="605.714" y1="535.219" y2="535.219" gradientUnits="userSpaceOnUse"/><linearGradient xlink:href="#c" id="F" x1="154.286" x2="605.714" y1="535.219" y2="535.219" gradientUnits="userSpaceOnUse"/><linearGradient xlink:href="#c" id="e" x1="154.286" x2="605.714" y1="535.219" y2="535.219" gradientUnits="userSpaceOnUse"/><linearGradient xlink:href="#c" id="i" x1="154.286" x2="605.714" y1="535.219" y2="535.219" gradientUnits="userSpaceOnUse"/><linearGradient xlink:href="#c" id="p" x1="154.286" x2="605.714" y1="535.219" y2="535.219" gradientUnits="userSpaceOnUse"/><linearGradient xlink:href="#c" id="t" x1="154.286" x2="605.714" y1="535.219" y2="535.219" gradientUnits="userSpaceOnUse"/><filter id="r" width="1" height="1" x="0" y="0" color-interpolation-filters="sRGB"><feColorMatrix type="saturate" values="0"/></filter><filter id="n" width="1" height="1" x="0" y="0" color-interpolation-filters="sRGB"><feColorMatrix type="saturate" values="0"/></filter><filter id="g" width="1" height="1" x="0" y="0" color-interpolation-filters="sRGB"><feColorMatrix type="saturate" values="0"/></filter></defs><path d="M205.756 125.83a93.737 95.497 0 0 1-187.475 0 93.737 95.497 0 1 1 187.475 0z" style="color:#000;fill:none;stroke:#ff6500;stroke-width:22.29147339;stroke-miterlimit:4;stroke-opacity:1;stroke-dasharray:none" transform="translate(-5.446 -18.163)scale(1.15514)"/><path d="M237.143 545.934c0 74.558-60.442 135-135 135-74.559 0-135-60.442-135-135 0-74.559 60.441-135 135-135 74.558 0 135 60.441 135 135z" style="fill:url(#d);fill-opacity:1;stroke:none" transform="matrix(.21478 -.07096 .09528 .15995 9.187 39.932)"/><path d="M605.714 535.22c0 124.658-101.055 225.714-225.714 225.714-124.659 0-225.714-101.056-225.714-225.715 0-124.658 101.055-225.714 225.714-225.714 124.659 0 225.714 101.056 225.714 225.714z" style="fill:url(#e);fill-opacity:1;stroke:none" transform="matrix(-.09929 -.1102 .10914 -.10025 61.735 183.896)"/><path d="M237.143 545.934c0 74.558-60.442 135-135 135-74.559 0-135-60.442-135-135 0-74.559 60.441-135 135-135 74.558 0 135 60.441 135 135z" style="opacity:.87614698;fill:url(#f);fill-opacity:1;stroke:none" transform="matrix(.14754 0 0 .14897 59.232 -2.433)"/><g style="filter:url(#g)" transform="matrix(.61438 0 0 .62033 120.816 86.717)"><path d="M237.143 545.934c0 74.558-60.442 135-135 135-74.559 0-135-60.442-135-135 0-74.559 60.441-135 135-135 74.558 0 135 60.441 135 135z" style="fill:url(#h);fill-opacity:1;stroke:none" transform="matrix(.34959 -.11439 .15509 .25785 -54.059 -75.42)"/><path d="M605.714 535.22c0 124.658-101.055 225.714-225.714 225.714-124.659 0-225.714-101.056-225.714-225.715 0-124.658 101.055-225.714 225.714-225.714 124.659 0 225.714 101.056 225.714 225.714z" style="fill:url(#i);fill-opacity:1;stroke:none" transform="rotate(-132.294 50.368 71.37)scale(.24014)"/><path d="M237.143 545.934c0 74.558-60.442 135-135 135-74.559 0-135-60.442-135-135 0-74.559 60.441-135 135-135 74.558 0 135 60.441 135 135z" style="opacity:.87614698;fill:url(#m);fill-opacity:1;stroke:none" transform="translate(27.396 -143.713)scale(.24015)"/></g><g style="filter:url(#n)" transform="matrix(.61438 0 0 .62033 120.816 163.143)"><path d="M237.143 545.934c0 74.558-60.442 135-135 135-74.559 0-135-60.442-135-135 0-74.559 60.441-135 135-135 74.558 0 135 60.441 135 135z" style="fill:url(#o);fill-opacity:1;stroke:none" transform="matrix(.34959 -.11439 .15509 .25785 -54.059 -75.42)"/><path d="M605.714 535.22c0 124.658-101.055 225.714-225.714 225.714-124.659 0-225.714-101.056-225.714-225.715 0-124.658 101.055-225.714 225.714-225.714 124.659 0 225.714 101.056 225.714 225.714z" style="fill:url(#p);fill-opacity:1;stroke:none" transform="rotate(-132.294 50.368 71.37)scale(.24014)"/><path d="M237.143 545.934c0 74.558-60.442 135-135 135-74.559 0-135-60.442-135-135 0-74.559 60.441-135 135-135 74.558 0 135 60.441 135 135z" style="opacity:.87614698;fill:url(#q);fill-opacity:1;stroke:none" transform="translate(27.396 -143.713)scale(.24015)"/></g><g style="filter:url(#r)" transform="matrix(.61438 0 0 .62033 42.344 163.143)"><path d="M237.143 545.934c0 74.558-60.442 135-135 135-74.559 0-135-60.442-135-135 0-74.559 60.441-135 135-135 74.558 0 135 60.441 135 135z" style="fill:url(#s);fill-opacity:1;stroke:none" transform="matrix(.34959 -.11439 .15509 .25785 -54.059 -75.42)"/><path d="M605.714 535.22c0 124.658-101.055 225.714-225.714 225.714-124.659 0-225.714-101.056-225.714-225.715 0-124.658 101.055-225.714 225.714-225.714 124.659 0 225.714 101.056 225.714 225.714z" style="fill:url(#t);fill-opacity:1;stroke:none" transform="rotate(-132.294 50.368 71.37)scale(.24014)"/><path d="M237.143 545.934c0 74.558-60.442 135-135 135-74.559 0-135-60.442-135-135 0-74.559 60.441-135 135-135 74.558 0 135 60.441 135 135z" style="opacity:.87614698;fill:url(#u);fill-opacity:1;stroke:none" transform="translate(27.396 -143.713)scale(.24015)"/></g><path d="M495.889 125.83a93.737 95.497 0 0 1-187.475 0 93.737 95.497 0 1 1 187.475 0z" style="color:#000;fill:none;stroke:#ff6500;stroke-width:22.29147339;stroke-miterlimit:4;stroke-opacity:1;stroke-dasharray:none" transform="translate(50.57 -15.99)scale(1.15514)"/><g style="filter:url(#r)" transform="matrix(.61438 0 0 .62033 434.661 89.668)"><path d="M237.143 545.934c0 74.558-60.442 135-135 135-74.559 0-135-60.442-135-135 0-74.559 60.441-135 135-135 74.558 0 135 60.441 135 135z" style="fill:url(#v);fill-opacity:1;stroke:none" transform="matrix(.34959 -.11439 .15509 .25785 -54.059 -75.42)"/><path d="M605.714 535.22c0 124.658-101.055 225.714-225.714 225.714-124.659 0-225.714-101.056-225.714-225.715 0-124.658 101.055-225.714 225.714-225.714 124.659 0 225.714 101.056 225.714 225.714z" style="fill:url(#w);fill-opacity:1;stroke:none" transform="rotate(-132.294 50.368 71.37)scale(.24014)"/><path d="M237.143 545.934c0 74.558-60.442 135-135 135-74.559 0-135-60.442-135-135 0-74.559 60.441-135 135-135 74.558 0 135 60.441 135 135z" style="opacity:.87614698;fill:url(#x);fill-opacity:1;stroke:none" transform="translate(27.396 -143.713)scale(.24015)"/></g><g style="filter:url(#r)" transform="matrix(.61438 0 0 .62033 514.627 89.668)"><path d="M237.143 545.934c0 74.558-60.442 135-135 135-74.559 0-135-60.442-135-135 0-74.559 60.441-135 135-135 74.558 0 135 60.441 135 135z" style="fill:url(#y);fill-opacity:1;stroke:none" transform="matrix(.34959 -.11439 .15509 .25785 -54.059 -75.42)"/><path d="M605.714 535.22c0 124.658-101.055 225.714-225.714 225.714-124.659 0-225.714-101.056-225.714-225.715 0-124.658 101.055-225.714 225.714-225.714 124.659 0 225.714 101.056 225.714 225.714z" style="fill:url(#z);fill-opacity:1;stroke:none" transform="rotate(-132.294 50.368 71.37)scale(.24014)"/><path d="M237.143 545.934c0 74.558-60.442 135-135 135-74.559 0-135-60.442-135-135 0-74.559 60.441-135 135-135 74.558 0 135 60.441 135 135z" style="opacity:.87614698;fill:url(#A);fill-opacity:1;stroke:none" transform="translate(27.396 -143.713)scale(.24015)"/></g><g style="filter:url(#r)" transform="matrix(.61438 0 0 .62033 434.661 166.506)"><path d="M237.143 545.934c0 74.558-60.442 135-135 135-74.559 0-135-60.442-135-135 0-74.559 60.441-135 135-135 74.558 0 135 60.441 135 135z" style="fill:url(#B);fill-opacity:1;stroke:none" transform="matrix(.34959 -.11439 .15509 .25785 -54.059 -75.42)"/><path d="M605.714 535.22c0 124.658-101.055 225.714-225.714 225.714-124.659 0-225.714-101.056-225.714-225.715 0-124.658 101.055-225.714 225.714-225.714 124.659 0 225.714 101.056 225.714 225.714z" style="fill:url(#C);fill-opacity:1;stroke:none" transform="rotate(-132.294 50.368 71.37)scale(.24014)"/><path d="M237.143 545.934c0 74.558-60.442 135-135 135-74.559 0-135-60.442-135-135 0-74.559 60.441-135 135-135 74.558 0 135 60.441 135 135z" style="opacity:.87614698;fill:url(#D);fill-opacity:1;stroke:none" transform="translate(27.396 -143.713)scale(.24015)"/></g><path d="M237.143 545.934c0 74.558-60.442 135-135 135-74.559 0-135-60.442-135-135 0-74.559 60.441-135 135-135 74.558 0 135 60.441 135 135z" style="fill:url(#E);fill-opacity:1;stroke:none" transform="matrix(.21478 -.07096 .09528 .15995 481.414 119.72)"/><path d="M605.714 535.22c0 124.658-101.055 225.714-225.714 225.714-124.659 0-225.714-101.056-225.714-225.715 0-124.658 101.055-225.714 225.714-225.714 124.659 0 225.714 101.056 225.714 225.714z" style="fill:url(#F);fill-opacity:1;stroke:none" transform="matrix(-.09929 -.1102 .10914 -.10025 533.962 263.684)"/><path d="M237.143 545.934c0 74.558-60.442 135-135 135-74.559 0-135-60.442-135-135 0-74.559 60.441-135 135-135 74.558 0 135 60.441 135 135z" style="opacity:.87614698;fill:url(#G);fill-opacity:1;stroke:none" transform="matrix(.14754 0 0 .14897 531.459 77.356)"/><g style="fill:#ff8c00;stroke:none;overflow:visible"><path d="m21.502 9.437 19.004 16.507-19.004 16.423v-7.87H6.506V17.442h14.996V9.437z" style="color:#000;fill:#ff8c00;fill-opacity:1;fill-rule:nonzero;stroke:none;stroke-width:.99999958;marker:none;visibility:visible;display:inline;overflow:visible" transform="matrix(2.23895 0 0 4.0653 270.625 22.7)"/><path d="M7 17.945v7.953l32.769-.024-17.615-15.345v7.416H7z" style="opacity:.35393258;color:#000;fill:#ff8c00;fill-opacity:1;fill-rule:nonzero;stroke:none;stroke-width:1;marker:none;visibility:visible;display:inline;overflow:visible" transform="matrix(2.23895 0 0 4.0653 270.625 22.7)"/><path d="M22.573 11.579 39.09 25.965l-16.517 14.2v-6.74H7.506V18.448h15.067V11.58z" style="opacity:.35400008;color:#000;fill:#ff8c00;stroke:none;stroke-width:.99999958;marker:none;visibility:visible;display:inline;overflow:visible" transform="matrix(2.23895 0 0 4.0653 270.625 22.7)"/></g></svg>