<svg xmlns="http://www.w3.org/2000/svg" xml:space="preserve" width="128" height="128"><path d="m14.211 56.1-.662-37.11 12.156 8.782c7.774-8.068 17.899-13.388 29.157-15.202 13.737-2.213 27.514 1.056 38.793 9.205 11.279 8.149 18.71 20.202 20.923 33.94 2.213 13.737-1.056 27.514-9.205 38.792-8.149 11.279-20.202 18.71-33.94 20.923-13.736 2.213-27.513-1.056-38.792-9.205a52.176 52.176 0 0 1-19.894-29.051l13.693-3.572a37.994 37.994 0 0 0 14.488 21.153c16.958 12.252 40.723 8.424 52.975-8.535 12.253-16.958 8.423-40.723-8.535-52.975-14.896-10.762-35.04-9.115-48.025 2.936l12.309 8.893z" style="fill:#ff4500;stroke-width:.231977"/></svg>