<svg xmlns="http://www.w3.org/2000/svg" xmlns:xlink="http://www.w3.org/1999/xlink" xml:space="preserve" width="150" height="60" overflow="visible" style="overflow:visible" viewBox="0 0 640 256"><defs><radialGradient xlink:href="#a" id="g" cx="102.143" cy="545.934" r="135" fx="102.143" fy="545.934" gradientUnits="userSpaceOnUse"/><radialGradient xlink:href="#b" id="d" cx="102.143" cy="545.934" r="135" fx="102.143" fy="545.934" gradientUnits="userSpaceOnUse"/><radialGradient xlink:href="#b" id="i" cx="102.143" cy="545.934" r="135" fx="102.143" fy="545.934" gradientUnits="userSpaceOnUse"/><radialGradient xlink:href="#a" id="k" cx="102.143" cy="545.934" r="135" fx="102.143" fy="545.934" gradientUnits="userSpaceOnUse"/><radialGradient xlink:href="#b" id="l" cx="102.143" cy="545.934" r="135" fx="102.143" fy="545.934" gradientUnits="userSpaceOnUse"/><radialGradient xlink:href="#a" id="n" cx="102.143" cy="545.934" r="135" fx="102.143" fy="545.934" gradientUnits="userSpaceOnUse"/><radialGradient xlink:href="#b" id="o" cx="102.143" cy="545.934" r="135" fx="102.143" fy="545.934" gradientUnits="userSpaceOnUse"/><radialGradient xlink:href="#a" id="q" cx="102.143" cy="545.934" r="135" fx="102.143" fy="545.934" gradientUnits="userSpaceOnUse"/><radialGradient xlink:href="#b" id="r" cx="102.143" cy="545.934" r="135" fx="102.143" fy="545.934" gradientUnits="userSpaceOnUse"/><radialGradient xlink:href="#a" id="t" cx="102.143" cy="545.934" r="135" fx="102.143" fy="545.934" gradientUnits="userSpaceOnUse"/><radialGradient xlink:href="#b" id="u" cx="102.143" cy="545.934" r="135" fx="102.143" fy="545.934" gradientUnits="userSpaceOnUse"/><radialGradient xlink:href="#a" id="w" cx="102.143" cy="545.934" r="135" fx="102.143" fy="545.934" gradientUnits="userSpaceOnUse"/><radialGradient xlink:href="#b" id="x" cx="102.143" cy="545.934" r="135" fx="102.143" fy="545.934" gradientUnits="userSpaceOnUse"/><radialGradient xlink:href="#a" id="z" cx="102.143" cy="545.934" r="135" fx="102.143" fy="545.934" gradientUnits="userSpaceOnUse"/><radialGradient xlink:href="#b" id="A" cx="102.143" cy="545.934" r="135" fx="102.143" fy="545.934" gradientUnits="userSpaceOnUse"/><radialGradient xlink:href="#a" id="C" cx="102.143" cy="545.934" r="135" fx="102.143" fy="545.934" gradientUnits="userSpaceOnUse"/><linearGradient xlink:href="#c" id="f" x1="154.286" x2="605.714" y1="535.219" y2="535.219" gradientUnits="userSpaceOnUse"/><linearGradient id="a"><stop offset="0" style="stop-color:#fff;stop-opacity:1"/><stop offset="1" style="stop-color:#fff;stop-opacity:0"/></linearGradient><linearGradient id="c"><stop offset="0" style="stop-color:#772b00;stop-opacity:1"/><stop offset=".5" style="stop-color:#da441b;stop-opacity:1"/><stop offset=".75" style="stop-color:#d2400f;stop-opacity:1"/><stop offset=".938" style="stop-color:#d44316;stop-opacity:.614583"/><stop offset="1" style="stop-color:#c33900;stop-opacity:.21875"/></linearGradient><linearGradient id="b"><stop offset="0" style="stop-color:#999;stop-opacity:1"/><stop offset="1" style="stop-color:#999;stop-opacity:0"/></linearGradient><linearGradient xlink:href="#c" id="j" x1="154.286" x2="605.714" y1="535.219" y2="535.219" gradientUnits="userSpaceOnUse"/><linearGradient xlink:href="#c" id="m" x1="154.286" x2="605.714" y1="535.219" y2="535.219" gradientUnits="userSpaceOnUse"/><linearGradient xlink:href="#c" id="p" x1="154.286" x2="605.714" y1="535.219" y2="535.219" gradientUnits="userSpaceOnUse"/><linearGradient xlink:href="#c" id="s" x1="154.286" x2="605.714" y1="535.219" y2="535.219" gradientUnits="userSpaceOnUse"/><linearGradient xlink:href="#c" id="v" x1="154.286" x2="605.714" y1="535.219" y2="535.219" gradientUnits="userSpaceOnUse"/><linearGradient xlink:href="#c" id="y" x1="154.286" x2="605.714" y1="535.219" y2="535.219" gradientUnits="userSpaceOnUse"/><linearGradient xlink:href="#c" id="B" x1="154.286" x2="605.714" y1="535.219" y2="535.219" gradientUnits="userSpaceOnUse"/></defs><path d="M90.353 1004.407a42.254 42.634 0 0 1-84.508 0 42.254 42.634 0 1 1 84.508 0z" style="color:#000;fill:none;stroke:#ff6500;stroke-width:10;stroke-miterlimit:4;stroke-opacity:1;stroke-dasharray:none" transform="matrix(2.57535 0 0 2.6003 1.868 -2482.84)"/><g style="overflow:visible"><path d="M237.143 545.934c0 74.558-60.442 135-135 135-74.559 0-135-60.442-135-135 0-74.559 60.441-135 135-135 74.558 0 135 60.441 135 135z" style="fill:url(#d);fill-opacity:1;stroke:none" transform="matrix(.21585 -.07131 .09576 .16075 10.405 41.228)"/><path d="M605.714 535.22c0 124.658-101.055 225.714-225.714 225.714-124.659 0-225.714-101.056-225.714-225.715 0-124.658 101.055-225.714 225.714-225.714 124.659 0 225.714 101.056 225.714 225.714z" style="fill:url(#f);fill-opacity:1;stroke:none" transform="matrix(-.09978 -.11074 .10968 -.10075 63.215 185.908)"/><path d="M237.143 545.934c0 74.558-60.442 135-135 135-74.559 0-135-60.442-135-135 0-74.559 60.441-135 135-135 74.558 0 135 60.441 135 135z" style="opacity:.87614698;fill:url(#g);fill-opacity:1;stroke:none" transform="matrix(.14828 0 0 .14971 60.699 -1.348)"/><path d="M237.143 545.934c0 74.558-60.442 135-135 135-74.559 0-135-60.442-135-135 0-74.559 60.441-135 135-135 74.558 0 135 60.441 135 135z" style="fill:url(#i);fill-opacity:1;stroke:none" transform="matrix(.21585 -.07131 .09576 .16075 89.212 41.228)"/><path d="M605.714 535.22c0 124.658-101.055 225.714-225.714 225.714-124.659 0-225.714-101.056-225.714-225.715 0-124.658 101.055-225.714 225.714-225.714 124.659 0 225.714 101.056 225.714 225.714z" style="fill:url(#j);fill-opacity:1;stroke:none" transform="scale(-.14828 -.14971)rotate(47.705 925.338 -1704.02)"/><path d="M237.143 545.934c0 74.558-60.442 135-135 135-74.559 0-135-60.442-135-135 0-74.559 60.441-135 135-135 74.558 0 135 60.441 135 135z" style="opacity:.87614698;fill:url(#k);fill-opacity:1;stroke:none" transform="matrix(.14828 0 0 .14971 139.506 -1.348)"/><path d="M237.143 545.934c0 74.558-60.442 135-135 135-74.559 0-135-60.442-135-135 0-74.559 60.441-135 135-135 74.558 0 135 60.441 135 135z" style="fill:url(#l);fill-opacity:1;stroke:none" transform="matrix(.21585 -.07131 .09576 .16075 89.212 118.145)"/><path d="M605.714 535.22c0 124.658-101.055 225.714-225.714 225.714-124.659 0-225.714-101.056-225.714-225.715 0-124.658 101.055-225.714 225.714-225.714 124.659 0 225.714 101.056 225.714 225.714z" style="fill:url(#m);fill-opacity:1;stroke:none" transform="scale(-.14828 -.14971)rotate(47.705 1506.33 -1960.903)"/><path d="M237.143 545.934c0 74.558-60.442 135-135 135-74.559 0-135-60.442-135-135 0-74.559 60.441-135 135-135 74.558 0 135 60.441 135 135z" style="opacity:.87614698;fill:url(#n);fill-opacity:1;stroke:none" transform="matrix(.14828 0 0 .14971 139.506 75.57)"/><path d="M237.143 545.934c0 74.558-60.442 135-135 135-74.559 0-135-60.442-135-135 0-74.559 60.441-135 135-135 74.558 0 135 60.441 135 135z" style="fill:url(#o);fill-opacity:1;stroke:none" transform="matrix(.21585 -.07131 .09576 .16075 10.405 118.145)"/><path d="M605.714 535.22c0 124.658-101.055 225.714-225.714 225.714-124.659 0-225.714-101.056-225.714-225.715 0-124.658 101.055-225.714 225.714-225.714 124.659 0 225.714 101.056 225.714 225.714z" style="fill:url(#p);fill-opacity:1;stroke:none" transform="matrix(-.09978 -.11074 .10968 -.10075 63.215 262.826)"/><path d="M237.143 545.934c0 74.558-60.442 135-135 135-74.559 0-135-60.442-135-135 0-74.559 60.441-135 135-135 74.558 0 135 60.441 135 135z" style="opacity:.87614698;fill:url(#q);fill-opacity:1;stroke:none" transform="matrix(.14828 0 0 .14971 60.699 75.57)"/></g><path d="M90.353 1004.407a42.254 42.634 0 0 1-84.508 0 42.254 42.634 0 1 1 84.508 0z" style="color:#000;fill:none;stroke:#ff6500;stroke-width:10;stroke-miterlimit:4;stroke-opacity:1;stroke-dasharray:none" transform="matrix(2.5019 0 0 2.62658 396.378 -2509.515)"/><g style="overflow:visible"><path d="M237.143 545.934c0 74.558-60.442 135-135 135-74.559 0-135-60.442-135-135 0-74.559 60.441-135 135-135 74.558 0 135 60.441 135 135z" style="fill:url(#r);fill-opacity:1;stroke:none" transform="matrix(.2097 -.07203 .09303 .16237 404.672 40.059)"/><path d="M605.714 535.22c0 124.658-101.055 225.714-225.714 225.714-124.659 0-225.714-101.056-225.714-225.715 0-124.658 101.055-225.714 225.714-225.714 124.659 0 225.714 101.056 225.714 225.714z" style="fill:url(#s);fill-opacity:1;stroke:none" transform="matrix(-.09694 -.11186 .10655 -.10177 455.975 186.201)"/><path d="M237.143 545.934c0 74.558-60.442 135-135 135-74.559 0-135-60.442-135-135 0-74.559 60.441-135 135-135 74.558 0 135 60.441 135 135z" style="opacity:.87614698;fill:url(#t);fill-opacity:1;stroke:none" transform="matrix(.14405 0 0 .15123 453.53 -2.947)"/><path d="M237.143 545.934c0 74.558-60.442 135-135 135-74.559 0-135-60.442-135-135 0-74.559 60.441-135 135-135 74.558 0 135 60.441 135 135z" style="fill:url(#u);fill-opacity:1;stroke:none" transform="matrix(.2097 -.07203 .09303 .16237 481.23 40.059)"/><path d="M605.714 535.22c0 124.658-101.055 225.714-225.714 225.714-124.659 0-225.714-101.056-225.714-225.715 0-124.658 101.055-225.714 225.714-225.714 124.659 0 225.714 101.056 225.714 225.714z" style="fill:url(#v);fill-opacity:1;stroke:none" transform="matrix(-.09694 -.11186 .10655 -.10177 532.534 186.201)"/><path d="M237.143 545.934c0 74.558-60.442 135-135 135-74.559 0-135-60.442-135-135 0-74.559 60.441-135 135-135 74.558 0 135 60.441 135 135z" style="opacity:.87614698;fill:url(#w);fill-opacity:1;stroke:none" transform="matrix(.14405 0 0 .15123 530.09 -2.947)"/><path d="M237.143 545.934c0 74.558-60.442 135-135 135-74.559 0-135-60.442-135-135 0-74.559 60.441-135 135-135 74.558 0 135 60.441 135 135z" style="fill:url(#x);fill-opacity:1;stroke:none" transform="matrix(.2097 -.07203 .09303 .16237 481.23 117.754)"/><path d="M605.714 535.22c0 124.658-101.055 225.714-225.714 225.714-124.659 0-225.714-101.056-225.714-225.715 0-124.658 101.055-225.714 225.714-225.714 124.659 0 225.714 101.056 225.714 225.714z" style="fill:url(#y);fill-opacity:1;stroke:none" transform="matrix(-.09694 -.11186 .10655 -.10177 532.534 263.896)"/><path d="M237.143 545.934c0 74.558-60.442 135-135 135-74.559 0-135-60.442-135-135 0-74.559 60.441-135 135-135 74.558 0 135 60.441 135 135z" style="opacity:.87614698;fill:url(#z);fill-opacity:1;stroke:none" transform="matrix(.14405 0 0 .15123 530.09 74.748)"/><path d="M237.143 545.934c0 74.558-60.442 135-135 135-74.559 0-135-60.442-135-135 0-74.559 60.441-135 135-135 74.558 0 135 60.441 135 135z" style="fill:url(#A);fill-opacity:1;stroke:none" transform="matrix(.2097 -.07203 .09303 .16237 404.672 117.754)"/><path d="M605.714 535.22c0 124.658-101.055 225.714-225.714 225.714-124.659 0-225.714-101.056-225.714-225.715 0-124.658 101.055-225.714 225.714-225.714 124.659 0 225.714 101.056 225.714 225.714z" style="fill:url(#B);fill-opacity:1;stroke:none" transform="matrix(-.09694 -.11186 .10655 -.10177 455.975 263.896)"/><path d="M237.143 545.934c0 74.558-60.442 135-135 135-74.559 0-135-60.442-135-135 0-74.559 60.441-135 135-135 74.558 0 135 60.441 135 135z" style="opacity:.87614698;fill:url(#C);fill-opacity:1;stroke:none" transform="matrix(.14405 0 0 .15123 453.53 74.748)"/></g><g style="fill:#ff8c00;stroke:none"><path d="m21.502 9.437 19.004 16.507-19.004 16.423v-7.87H6.506V17.442h14.996V9.437z" style="color:#000;fill:#ff8c00;fill-opacity:1;fill-rule:nonzero;stroke:none;stroke-width:.99999958;marker:none;visibility:visible;display:inline;overflow:visible" transform="matrix(2.23895 0 0 4.0653 272.984 25.04)"/><path d="M7 17.945v7.953l32.769-.024-17.615-15.345v7.416H7z" style="opacity:.35393258;color:#000;fill:#ff8c00;fill-opacity:1;fill-rule:nonzero;stroke:none;stroke-width:1;marker:none;visibility:visible;display:inline;overflow:visible" transform="matrix(2.23895 0 0 4.0653 272.984 25.04)"/><path d="M22.573 11.579 39.09 25.965l-16.517 14.2v-6.74H7.506V18.448h15.067V11.58z" style="opacity:.35400008;color:#000;fill:#ff8c00;stroke:none;stroke-width:.99999958;marker:none;visibility:visible;display:inline;overflow:visible" transform="matrix(2.23895 0 0 4.0653 272.984 25.04)"/></g></svg>